<?xml version="1.0" encoding="UTF-8"?>
<svg width="60" height="60" version="1.1" viewBox="0 0 60 60" xmlns="http://www.w3.org/2000/svg" style="background:var(--b)">
<style>:root{--b:#121213;--c:#538d4e;--w:#b59f3b;--u:#3a3a3c}rect{fill:transparent;stroke:var(--u)}.c{fill:var(--c);stroke:var(--c)}.w{fill:var(--w);stroke:var(--w)}.u{fill:var(--u);stroke:var(--u)}</style>
<g stroke-linecap="round" stroke-linejoin="round">
<rect x="6" y="1" width="8" height="8" ry="1" class="u"/>
<rect x="16" y="1" width="8" height="8" ry="1" class="u"/>
<rect x="26" y="1" width="8" height="8" ry="1" class="w"/>
<rect x="36" y="1" width="8" height="8" ry="1" class="u"/>
<rect x="46" y="1" width="8" height="8" ry="1" class="u"/>
<rect x="6" y="11" width="8" height="8" ry="1" class="u"/>
<rect x="16" y="11" width="8" height="8" ry="1" class="w"/>
<rect x="26" y="11" width="8" height="8" ry="1" class="u"/>
<rect x="36" y="11" width="8" height="8" ry="1" class="w"/>
<rect x="46" y="11" width="8" height="8" ry="1" class="u"/>
<rect x="6" y="21" width="8" height="8" ry="1" class="u"/>
<rect x="16" y="21" width="8" height="8" ry="1" class="u"/>
<rect x="26" y="21" width="8" height="8" ry="1" class="c"/>
<rect x="36" y="21" width="8" height="8" ry="1" class="u"/>
<rect x="46" y="21" width="8" height="8" ry="1" class="u"/>
<rect x="6" y="31" width="8" height="8" ry="1" class="u"/>
<rect x="16" y="31" width="8" height="8" ry="1" class="u"/>
<rect x="26" y="31" width="8" height="8" ry="1" class="u"/>
<rect x="36" y="31" width="8" height="8" ry="1" class="u"/>
<rect x="46" y="31" width="8" height="8" ry="1" class="u"/>
<rect x="6" y="41" width="8" height="8" ry="1" class="u"/>
<rect x="16" y="41" width="8" height="8" ry="1" class="u"/>
<rect x="26" y="41" width="8" height="8" ry="1" class="u"/>
<rect x="36" y="41" width="8" height="8" ry="1" class="u"/>
<rect x="46" y="41" width="8" height="8" ry="1" class="u"/>
<rect x="6" y="51" width="8" height="8" ry="1" class="c"/>
<rect x="16" y="51" width="8" height="8" ry="1" class="c"/>
<rect x="26" y="51" width="8" height="8" ry="1" class="c"/>
<rect x="36" y="51" width="8" height="8" ry="1" class="c"/>
<rect x="46" y="51" width="8" height="8" ry="1" class="c"/>
</g>
</svg>
