<?xml version="1.0" encoding="UTF-8"?>
<svg width="50" height="60" version="1.1" viewBox="0 0 50 60" xmlns="http://www.w3.org/2000/svg" style="background:var(--b)">
<style>:root{--b:#121213;--c:#538d4e;--w:#b59f3b;--u:#3a3a3c}.l{--b:#fff;--c:#6aaa64;--w:#c9b458;--u:#787c7e}rect{fill:transparent;stroke:var(--u)}.c{fill:var(--c);stroke:var(--c)}.w{fill:var(--w);stroke:var(--w)}.u{fill:var(--u);stroke:var(--u)}</style>
<g stroke-linecap="round" stroke-linejoin="round">
<rect x="1" y="1" width="8" height="8" ry="1"/>
<rect x="11" y="1" width="8" height="8" ry="1"/>
<rect x="21" y="1" width="8" height="8" ry="1"/>
<rect x="31" y="1" width="8" height="8" ry="1"/>
<rect x="41" y="1" width="8" height="8" ry="1"/>
<rect x="1" y="11" width="8" height="8" ry="1"/>
<rect x="11" y="11" width="8" height="8" ry="1"/>
<rect x="21" y="11" width="8" height="8" ry="1"/>
<rect x="31" y="11" width="8" height="8" ry="1"/>
<rect x="41" y="11" width="8" height="8" ry="1"/>
<rect x="1" y="21" width="8" height="8" ry="1"/>
<rect x="11" y="21" width="8" height="8" ry="1"/>
<rect x="21" y="21" width="8" height="8" ry="1"/>
<rect x="31" y="21" width="8" height="8" ry="1"/>
<rect x="41" y="21" width="8" height="8" ry="1"/>
<rect x="1" y="31" width="8" height="8" ry="1"/>
<rect x="11" y="31" width="8" height="8" ry="1"/>
<rect x="21" y="31" width="8" height="8" ry="1"/>
<rect x="31" y="31" width="8" height="8" ry="1"/>
<rect x="41" y="31" width="8" height="8" ry="1"/>
<rect x="1" y="41" width="8" height="8" ry="1"/>
<rect x="11" y="41" width="8" height="8" ry="1"/>
<rect x="21" y="41" width="8" height="8" ry="1"/>
<rect x="31" y="41" width="8" height="8" ry="1"/>
<rect x="41" y="41" width="8" height="8" ry="1"/>
<rect x="1" y="51" width="8" height="8" ry="1"/>
<rect x="11" y="51" width="8" height="8" ry="1"/>
<rect x="21" y="51" width="8" height="8" ry="1"/>
<rect x="31" y="51" width="8" height="8" ry="1"/>
<rect x="41" y="51" width="8" height="8" ry="1"/>
</g>
<script>const p=new URL(location.href).searchParams;const s=[...(p.get('p')||'').replace(/[^cwu]/g,'')];document.querySelectorAll('g > rect').forEach((r,i)=>{if(s[i]){r.classList.add(s[i])}});if(p.get('m')==='l'){document.querySelector('svg').classList.add('l')}</script>
</svg>
